<svg width="300" height="90" viewBox="0 0 300 90" fill="none" xmlns="http://www.w3.org/2000/svg">
<rect width="300" height="90" fill="#FCEAE7"/>
<g clip-path="url(#clip0_54869_29539)">
<path fill-rule="evenodd" clip-rule="evenodd" d="M100.276 26.2836C97.4484 26.9006 96.5514 27.1415 95.2829 27.6245C93.5532 28.283 91.1827 29.4712 89.3373 30.6048C88.1452 31.3371 83.2389 34.6062 83.051 34.7934C82.808 35.0354 79.1936 37.0727 78.3393 37.4492C75.1785 38.842 71.9858 38.4456 68.792 36.2634C68.4094 36.0019 68.0161 35.7881 67.9183 35.7881C67.2 35.7881 68.8049 38.1936 70.1563 39.1427C71.0501 39.7706 72.2226 40.3737 73.1855 40.7011C74.4551 41.133 77.6019 40.9211 79.3241 40.288C80.5675 39.8309 82.5355 38.9522 82.7196 38.7722C82.7662 38.7266 83.2775 38.4458 83.8558 38.148C84.434 37.8503 86.6044 36.5497 88.6787 35.2579C92.1073 33.1227 95.5011 31.3119 96.0738 31.3119C96.1974 31.3119 96.3695 31.2465 96.4562 31.1666C96.7232 30.9214 99.2069 30.1863 100.525 29.9622C102.183 29.6805 105.561 29.6767 106.516 29.9554C109.12 30.7152 110.883 32.2015 112.058 34.6292C113.218 37.024 113.411 37.9191 113.412 40.9274C113.413 43.7159 113.295 44.3582 112.479 45.9839C111.459 48.0165 109.798 49.8542 107.65 51.3256C106.739 51.9504 103.59 53.527 103.254 53.527C102.923 53.527 102.846 53.3005 102.59 51.5738C102.022 47.747 100.312 46.1953 96.9563 46.4629C95.7092 46.5626 93.1075 46.9917 92.5371 47.1921C92.1018 47.3447 90.1614 47.8794 89.1254 48.1315C88.5762 48.2653 87.715 48.5245 87.2115 48.7074C86.7081 48.8903 86.0507 48.9969 85.7652 49.0455C85.4681 49.0801 85.3017 49.1633 85.1455 49.1936C85.052 49.2465 84.2374 49.4677 83.2357 49.6282C80.8236 50.0147 76.7848 49.9035 74.8131 49.396C73.3652 49.0235 73.0647 48.9854 73.0677 49.1753C73.07 49.3116 75.2099 50.2114 75.5323 50.2114C75.6427 50.2114 75.8631 50.278 76.022 50.3594C76.7913 50.7539 79.7793 51.193 81.7459 51.2009C83.3454 51.2074 86.5232 50.811 89.1254 50.2805C92.94 49.5029 96.6191 48.8888 97.4773 48.887C98.9572 48.8837 99.4852 49.2296 100.257 50.7088C100.82 51.7877 101.496 54.5255 101.702 56.5545C102.014 59.6459 102.348 60.1223 102.587 57.8157C102.756 56.1896 102.761 56.1843 104.769 55.6078C107.408 54.8499 110.619 52.9093 112.528 50.9183C114.059 49.3228 114.689 48.4235 115.5 46.6756C116.461 44.6079 116.585 43.8932 116.585 40.4301C116.585 37.5829 116.552 37.2442 116.122 35.7052C115.561 33.6995 114.908 32.2648 113.94 30.9151C112.152 28.4197 109.587 26.8463 106.493 26.3461C105.471 26.1808 100.955 26.1354 100.276 26.2836ZM65.2645 27.2631C63.7459 27.6699 62.091 28.6527 60.6999 29.9738C59.1959 31.4021 58.4885 32.5569 57.7632 34.768C57.2706 36.2698 57.2556 36.4068 57.2556 39.4287C57.2556 42.414 57.2764 42.612 57.7612 44.2374C59.0575 48.5841 61.2905 51.4256 65.7431 54.3949C66.7042 55.0357 67.5445 55.6078 67.6105 55.666C67.7765 55.8128 67.4671 60.8757 67.1687 62.8939C67.0341 63.8057 66.8718 65.0294 66.8084 65.613L66.6929 66.6744L67.3484 66.5867C67.7087 66.5386 68.787 66.2165 69.7442 65.8708C72.6267 64.8302 75.2249 64.1161 78.308 63.5172C80.3654 63.1178 80.7407 63.0976 85.9633 63.1081C88.9839 63.1143 91.8485 63.1672 92.329 63.2258C93.3065 63.345 93.4878 63.1427 92.6619 62.855C91.6917 62.5167 88.0021 61.841 86.1424 61.6609C83.8711 61.4408 79.9048 61.4365 77.3927 61.6512C75.6468 61.8004 73.3354 62.2607 71.1372 62.8974C69.8125 63.2811 69.5755 63.2373 69.5444 62.6038C69.4879 61.4495 69.6101 60.2261 69.8141 59.9065C70.0233 59.5783 70.8047 59.3038 73.7314 58.5304C77.5884 57.5109 78.8657 57.329 82.8845 57.2264C86.0991 57.1444 88.5184 57.3105 90.838 57.7725C91.8436 57.9729 91.3734 57.585 90.2488 57.2865C87.8296 56.6445 86.7634 56.4435 84.2992 56.1643C82.5562 55.9671 78.6026 56.0595 76.8101 56.3393C74.9684 56.6269 71.9931 57.1745 71 57.4087C70.4588 57.5362 69.9167 57.6026 69.795 57.5562C69.5345 57.4565 69.3689 56.8822 68.9133 54.4986C68.525 52.4669 67.375 48.6149 67.072 48.3314C66.9099 48.1795 66.8889 48.3657 66.9726 49.2167C67.3025 52.5731 67.3038 52.6981 67.0139 52.6981C66.5789 52.6981 64.4346 50.7407 63.211 49.2264C61.9019 47.6062 60.9008 45.6846 60.3988 43.8286C59.9159 42.043 59.8628 38.2294 60.2985 36.617C61.2334 33.1566 63.4723 31.0128 67.3241 29.8894C69.2448 29.3294 73.1955 29.6562 75.8948 30.5983C76.5813 30.8379 77.2141 31.0965 77.3011 31.1729C77.5157 31.3614 77.7254 31.348 77.7254 31.1457C77.7254 30.8699 75.8529 29.5854 74.2875 28.7875C72.964 28.1127 71.8187 27.6999 69.8204 27.1773C68.879 26.9312 66.3236 26.9792 65.2645 27.2631ZM99.8225 32.2595C99.7273 32.2833 99.6942 32.2988 99.4495 32.3523C98.0347 32.662 97.0304 34.2257 97.0304 35.7566C97.0304 36.5683 97.1105 36.8421 97.5048 37.3796C98.2082 38.3388 102.98 42.9168 103.276 42.9168C103.652 42.9168 108.739 37.7972 109.066 37.0893C109.403 36.3602 109.429 34.9827 109.121 34.2466C108.691 33.2229 107.189 32.0194 105.941 32.3787C105.328 32.377 103.694 33.5174 103.527 33.7671C103.195 34.1 102.999 33.3465 102.325 32.8898C101.763 32.5098 100.821 32.0098 99.8225 32.2595Z" fill="#44100C"/>
</g>
<path d="M218.379 58.6357C218.379 58.4389 218.349 58.2652 218.287 58.1146C218.229 57.9602 218.125 57.8212 217.974 57.6977C217.827 57.5742 217.623 57.4565 217.36 57.3445C217.102 57.2326 216.774 57.1187 216.376 57.0029C215.959 56.8794 215.583 56.7423 215.247 56.5918C214.911 56.4374 214.624 56.2618 214.384 56.0649C214.145 55.868 213.962 55.6422 213.834 55.3874C213.707 55.1327 213.643 54.8412 213.643 54.5131C213.643 54.185 213.711 53.882 213.846 53.6041C213.981 53.3261 214.174 53.0849 214.425 52.8803C214.679 52.6718 214.983 52.5097 215.334 52.3939C215.685 52.2781 216.077 52.2202 216.509 52.2202C217.142 52.2202 217.679 52.3418 218.119 52.585C218.563 52.8243 218.901 53.1389 219.132 53.5288C219.364 53.9148 219.48 54.3278 219.48 54.7679H218.368C218.368 54.4514 218.3 54.1715 218.165 53.9283C218.03 53.6813 217.825 53.4883 217.551 53.3493C217.277 53.2065 216.93 53.1351 216.509 53.1351C216.112 53.1351 215.783 53.1949 215.525 53.3146C215.266 53.4342 215.073 53.5963 214.946 53.8009C214.822 54.0055 214.761 54.2391 214.761 54.5015C214.761 54.6791 214.797 54.8412 214.871 54.9879C214.948 55.1307 215.066 55.2639 215.224 55.3874C215.386 55.511 215.59 55.6248 215.838 55.7291C216.088 55.8333 216.388 55.9336 216.735 56.0301C217.214 56.1652 217.627 56.3158 217.974 56.4818C218.322 56.6478 218.607 56.835 218.831 57.0434C219.059 57.248 219.227 57.4815 219.335 57.744C219.447 58.0027 219.503 58.296 219.503 58.6241C219.503 58.9677 219.433 59.2784 219.294 59.5564C219.155 59.8343 218.957 60.0717 218.698 60.2685C218.439 60.4654 218.129 60.6179 217.766 60.726C217.407 60.8302 217.005 60.8823 216.561 60.8823C216.171 60.8823 215.787 60.8283 215.409 60.7202C215.035 60.6121 214.693 60.45 214.384 60.2338C214.079 60.0176 213.834 59.7513 213.649 59.4348C213.467 59.1144 213.377 58.7438 213.377 58.3231H214.488C214.488 58.6126 214.544 58.8615 214.656 59.07C214.768 59.2746 214.921 59.4444 215.114 59.5795C215.311 59.7146 215.533 59.815 215.78 59.8806C216.031 59.9424 216.291 59.9732 216.561 59.9732C216.951 59.9732 217.281 59.9192 217.551 59.8111C217.822 59.703 218.026 59.5486 218.165 59.3479C218.308 59.1472 218.379 58.9098 218.379 58.6357Z" fill="#44100C"/>
<path d="M211.91 59.8574V60.7664H207.445V59.8574H211.91ZM207.671 52.3359V60.7664H206.554V52.3359H207.671ZM211.319 55.9606V56.8696H207.445V55.9606H211.319ZM211.852 52.3359V53.2508H207.445V52.3359H211.852Z" fill="#44100C"/>
<path d="M204.287 56.2849V56.8176C204.287 57.4507 204.208 58.0181 204.05 58.5199C203.892 59.0217 203.664 59.4483 203.367 59.7995C203.069 60.1508 202.712 60.4191 202.296 60.6044C201.883 60.7896 201.419 60.8823 200.906 60.8823C200.408 60.8823 199.951 60.7896 199.534 60.6044C199.121 60.4191 198.762 60.1508 198.457 59.7995C198.156 59.4483 197.922 59.0217 197.756 58.5199C197.59 58.0181 197.507 57.4507 197.507 56.8176V56.2849C197.507 55.6518 197.588 55.0863 197.75 54.5884C197.916 54.0866 198.15 53.66 198.451 53.3088C198.752 52.9536 199.109 52.6834 199.522 52.4981C199.939 52.3128 200.396 52.2202 200.894 52.2202C201.408 52.2202 201.871 52.3128 202.284 52.4981C202.701 52.6834 203.058 52.9536 203.355 53.3088C203.656 53.66 203.886 54.0866 204.044 54.5884C204.206 55.0863 204.287 55.6518 204.287 56.2849ZM203.181 56.8176V56.2733C203.181 55.7715 203.129 55.3276 203.025 54.9416C202.925 54.5556 202.776 54.2313 202.579 53.9688C202.382 53.7063 202.141 53.5075 201.855 53.3724C201.574 53.2373 201.253 53.1698 200.894 53.1698C200.547 53.1698 200.232 53.2373 199.951 53.3724C199.673 53.5075 199.433 53.7063 199.233 53.9688C199.036 54.2313 198.883 54.5556 198.775 54.9416C198.667 55.3276 198.613 55.7715 198.613 56.2733V56.8176C198.613 57.3233 198.667 57.771 198.775 58.1609C198.883 58.5469 199.038 58.8731 199.238 59.1395C199.443 59.4019 199.684 59.6007 199.962 59.7358C200.244 59.8709 200.558 59.9385 200.906 59.9385C201.269 59.9385 201.591 59.8709 201.873 59.7358C202.155 59.6007 202.392 59.4019 202.585 59.1395C202.782 58.8731 202.931 58.5469 203.031 58.1609C203.131 57.771 203.181 57.3233 203.181 56.8176ZM202.243 50.1763L202.967 50.24C202.967 50.5217 202.911 50.7688 202.799 50.9811C202.687 51.1934 202.537 51.3575 202.348 51.4733C202.162 51.5891 201.952 51.647 201.717 51.647C201.52 51.647 201.358 51.62 201.23 51.5659C201.103 51.508 200.989 51.4443 200.889 51.3748C200.788 51.3015 200.682 51.2378 200.57 51.1838C200.462 51.1259 200.327 51.0969 200.165 51.0969C200.003 51.0969 199.866 51.1587 199.754 51.2822C199.646 51.4057 199.592 51.5582 199.592 51.7396L198.868 51.7049C198.868 51.4231 198.922 51.176 199.03 50.9637C199.142 50.7476 199.292 50.5797 199.482 50.46C199.671 50.3365 199.881 50.2747 200.113 50.2747C200.279 50.2747 200.423 50.3037 200.547 50.3616C200.674 50.4156 200.794 50.4793 200.906 50.5526C201.018 50.6221 201.134 50.6858 201.253 50.7437C201.373 50.7977 201.51 50.8248 201.664 50.8248C201.827 50.8248 201.964 50.763 202.076 50.6395C202.187 50.5121 202.243 50.3577 202.243 50.1763Z" fill="#44100C"/>
<path d="M194.569 58.0857H195.681C195.623 58.6183 195.47 59.0951 195.223 59.5158C194.976 59.9366 194.627 60.2705 194.175 60.5175C193.723 60.7607 193.16 60.8823 192.484 60.8823C191.99 60.8823 191.541 60.7897 191.135 60.6044C190.734 60.4191 190.388 60.1566 190.099 59.8169C189.809 59.4734 189.585 59.0623 189.427 58.5836C189.273 58.1011 189.196 57.5645 189.196 56.9739V56.1344C189.196 55.5438 189.273 55.0091 189.427 54.5305C189.585 54.048 189.811 53.6349 190.105 53.2914C190.402 52.9478 190.759 52.6834 191.176 52.4981C191.593 52.3129 192.062 52.2202 192.583 52.2202C193.22 52.2202 193.758 52.3399 194.198 52.5792C194.638 52.8185 194.98 53.1505 195.223 53.5751C195.47 53.9959 195.623 54.4842 195.681 55.04H194.569C194.515 54.6463 194.414 54.3085 194.268 54.0267C194.121 53.7411 193.913 53.5211 193.642 53.3667C193.372 53.2123 193.019 53.1351 192.583 53.1351C192.208 53.1351 191.878 53.2065 191.593 53.3493C191.311 53.4921 191.073 53.6948 190.88 53.9573C190.691 54.2198 190.549 54.5344 190.452 54.9011C190.356 55.2678 190.307 55.675 190.307 56.1228V56.9739C190.307 57.387 190.35 57.7749 190.435 58.1378C190.523 58.5006 190.657 58.8191 190.834 59.0931C191.012 59.3672 191.238 59.5834 191.512 59.7416C191.786 59.896 192.11 59.9732 192.484 59.9732C192.959 59.9732 193.337 59.898 193.619 59.7474C193.901 59.5969 194.113 59.3807 194.256 59.0989C194.403 58.8171 194.507 58.4794 194.569 58.0857ZM192.085 60.8244H192.855L192.785 61.1313C193.009 61.1699 193.212 61.2625 193.393 61.4092C193.579 61.5559 193.671 61.7972 193.671 62.133C193.671 62.3144 193.633 62.4785 193.556 62.6251C193.482 62.7757 193.372 62.9031 193.226 63.0073C193.079 63.1154 192.895 63.1984 192.675 63.2563C192.459 63.3142 192.206 63.3431 191.917 63.3431L191.876 62.7236C192.054 62.7236 192.214 62.7043 192.357 62.6657C192.504 62.6271 192.619 62.5653 192.704 62.4804C192.793 62.3955 192.838 62.2855 192.838 62.1504C192.838 62.023 192.805 61.9226 192.739 61.8493C192.674 61.7759 192.571 61.7199 192.432 61.6813C192.297 61.6466 192.122 61.6215 191.905 61.6061L192.085 60.8244Z" fill="#44100C"/>
<path d="M186.854 52.3359V60.7664H185.737V52.3359H186.854Z" fill="#44100C"/>
<path d="M183.679 59.8574V60.7664H179.214V59.8574H183.679ZM179.44 52.3359V60.7664H178.323V52.3359H179.44ZM183.088 55.9606V56.8696H179.214V55.9606H183.088ZM183.621 52.3359V53.2508H179.214V52.3359H183.621Z" fill="#44100C"/>
<path d="M172.293 52.3359V60.7664H171.175V52.3359H172.293ZM175.825 56.1285V57.0433H172.05V56.1285H175.825ZM176.398 52.3359V53.2508H172.05V52.3359H176.398Z" fill="#44100C"/>
<path d="M169.199 59.8574V60.7664H164.735V59.8574H169.199ZM164.961 52.3359V60.7664H163.843V52.3359H164.961ZM168.608 55.9606V56.8696H164.735V55.9606H168.608ZM169.141 52.3359V53.2508H164.735V52.3359H169.141Z" fill="#44100C"/>
<path d="M155.943 52.3359H158.734C159.367 52.3359 159.901 52.4324 160.338 52.6254C160.778 52.8185 161.112 53.1041 161.339 53.4824C161.571 53.8568 161.687 54.3181 161.687 54.8662C161.687 55.2523 161.608 55.6055 161.449 55.9258C161.295 56.2424 161.071 56.5126 160.778 56.7365C160.488 56.9565 160.141 57.1205 159.735 57.2286L159.423 57.3502H156.8L156.788 56.4412H158.768C159.17 56.4412 159.504 56.3717 159.77 56.2327C160.037 56.0899 160.237 55.8988 160.372 55.6595C160.507 55.4202 160.575 55.1558 160.575 54.8662C160.575 54.542 160.511 54.2583 160.384 54.0151C160.257 53.7719 160.056 53.5847 159.782 53.4534C159.512 53.3183 159.162 53.2508 158.734 53.2508H157.06V60.7664H155.943V52.3359ZM160.87 60.7664L158.821 56.9449L159.984 56.9391L162.063 60.6969V60.7664H160.87Z" fill="#44100C"/>
<path d="M234.343 34.7047C235.028 33.1693 237.768 32.9803 237.697 34.6102C237.674 34.8937 237.579 35.2244 237.461 35.5315C238.122 34.6575 239.422 33.2638 241.028 33.4055C242.729 33.5473 243.012 35.0118 242.54 36.2401C241.713 38.2952 238.949 38.5314 239.493 36.6417C241.5 36.4291 241.406 34.7756 240.012 35.0354C239.162 35.2008 238.052 35.9567 236.847 37.9409C236.398 39.7834 236.067 41.6495 235.666 43.492C235.571 43.9644 233.493 43.9644 233.634 42.9251C233.989 40.5629 234.556 38.2244 235.052 35.8858C235.217 35.3189 234.957 34.8228 234.343 34.7047Z" fill="#44100C"/>
<path d="M225.755 37.8468C226.676 35.9571 228.59 33.5949 230.81 33.4768C234.377 33.2642 233.834 37.3035 232.747 39.5003C231.826 41.4137 229.889 43.6341 227.645 43.7995C224.007 44.0829 224.692 40.0436 225.755 37.8468ZM227.361 38.272C226.487 40.3271 226.842 41.5554 227.55 41.8389C228.401 42.1696 229.794 41.2483 230.739 38.957C231.66 36.713 231.306 35.461 230.503 35.2957C229.771 35.1303 228.259 36.1224 227.361 38.272Z" fill="#44100C"/>
<path d="M215.9 30.949C216.727 29.0829 219.963 29.1302 219.112 31.7994C218.664 33.264 218.309 34.5159 217.884 36.0041C218.664 34.9411 219.656 33.5002 221.097 33.5238C223.317 33.5947 223.152 35.6025 222.868 37.2797C222.656 38.3899 221.64 41.0591 222.845 41.7442C223.601 42.1693 224.9 41.319 225.372 40.8465C225.821 40.3977 226.53 40.6103 226.034 41.4607C225.112 43.0433 222.231 44.4134 220.813 43.6103C218.546 42.3347 221.805 36.4057 220.719 35.3899C219.892 34.7285 217.624 37.7285 217.223 38.5316C216.821 40.1143 216.467 41.7205 216.207 43.3268C216.042 44.0355 214.459 43.7992 214.223 43.1851C213.987 42.6182 216.254 33.7128 216.679 32.1301C216.845 31.5396 216.49 31.0435 215.9 30.949Z" fill="#44100C"/>
<path d="M210.549 30.949C211.375 29.0829 214.588 29.1302 213.761 31.7994C212.934 34.4214 212.131 37.0907 211.635 39.8072C211.21 42.0512 212.769 42.2402 214.446 40.7284C215.273 39.7836 216.052 40.3741 215.367 41.2953C214.517 42.4292 212.698 43.7992 210.927 43.8229C209.179 43.8465 209.084 42.0512 209.273 40.7284C209.675 37.7993 210.549 34.9647 211.328 32.1301C211.494 31.5396 211.139 31.0435 210.549 30.949Z" fill="#44100C"/>
<path d="M202.408 38.7209C201.321 41.9571 205.172 42.9964 207.203 40.9177C207.841 40.2799 208.857 40.5398 208.148 41.4846C207.061 42.8783 205.077 43.7995 203.424 43.7995C201.062 43.8232 199.597 42.0043 199.951 39.6894C200.14 38.3666 200.802 36.8784 201.652 35.839C202.715 34.5162 204.652 33.2879 206.4 33.4296C208.809 33.595 209.235 35.3902 208.361 36.8784C207.203 38.7918 204.439 39.3351 202.408 38.7209ZM202.833 37.7052C203.896 38.1776 207.345 37.6107 207.061 35.9335C206.991 35.4847 206.518 35.154 205.951 35.1776C205.054 35.2013 203.731 35.7209 202.833 37.7052Z" fill="#44100C"/>
<path d="M198.212 43.3266C198.07 43.9644 196.038 43.7518 196.133 42.8778C196.393 40.681 196.842 38.4605 197.196 36.2637C196.416 37.5393 194.857 40.2794 193.96 41.0589C193.369 41.555 191.928 41.4605 191.621 40.5865C191.314 39.6652 191.29 37.5157 191.22 36.0984C191.007 37.5157 190.582 39.0747 190.298 40.492C189.259 45.6179 184.724 43.7281 185.905 41.3187C186.897 42.0038 188.054 41.2479 188.267 40.1377C188.787 37.3739 189.424 34.6338 190.133 31.8937C190.346 31.0669 192.306 30.6181 192.897 31.2323C193.18 31.5157 193.133 33.3582 193.157 33.7834C193.18 35.6259 193.251 37.3975 193.44 39.2164C194.999 36.9015 196.44 33.7598 198.164 31.7756C198.59 31.2087 199.558 30.9252 200.219 30.9488C200.385 30.9725 200.763 30.9961 200.715 31.2087C199.629 35.1062 198.637 39.3109 198.212 43.3266Z" fill="#44100C"/>
<path d="M176.716 40.6714C176.049 42.6585 178.413 43.2967 179.661 42.0203C180.052 41.6287 180.676 41.7883 180.241 42.3684C179.574 43.2242 178.355 43.7899 177.34 43.7899C175.89 43.8044 174.99 42.6875 175.208 41.2661C175.324 40.4538 175.73 39.5401 176.252 38.9019C176.905 38.0896 178.094 37.3354 179.168 37.4224C180.647 37.5239 180.908 38.6263 180.371 39.5401C179.661 40.7149 177.964 41.0485 176.716 40.6714ZM176.977 40.0477C177.63 40.3378 179.748 39.9897 179.574 38.9599C179.53 38.6843 179.24 38.4812 178.892 38.4957C178.341 38.5102 177.529 38.8293 176.977 40.0477Z" fill="#44100C"/>
<path d="M166.635 36.382C167.698 36.1222 167.911 34.9411 167.037 34.8702C166.116 34.7521 164.864 35.4844 164.982 36.6182C165.029 37.4922 165.974 38.2481 166.73 38.7914C169.446 40.6339 167.604 43.5394 164.627 43.7756C162.029 43.9882 161.25 41.4371 161.982 41.1064C162.407 40.9174 162.478 42.3111 163.895 42.1457C164.462 42.0749 165.029 41.6969 165.194 41.1536C165.596 39.9489 163.517 39.0513 163.068 37.5631C162.525 35.7915 164.462 33.8073 166.163 33.5474C167.297 33.3585 169.186 33.4766 169.517 34.8702C170.013 37.2324 166.753 37.7993 166.635 36.382Z" fill="#44100C"/>
<path d="M157.768 35.9096C157.91 35.3191 157.556 34.823 156.989 34.7286C157.815 32.8624 161.028 32.9097 160.178 35.5789C159.752 36.9726 159.374 38.3663 159.115 39.8072C158.973 40.445 158.926 41.4371 159.611 41.7914C160.343 42.1458 161.335 41.6025 161.902 40.9174C162.563 40.1379 162.989 40.6576 162.469 41.4843C161.808 42.5946 160.461 43.5394 159.091 43.752C156.894 44.1064 156.493 42.5473 156.752 40.7285C156.965 39.0986 157.319 37.4923 157.768 35.9096ZM160.367 29.8389C161.052 29.8389 161.666 30.2404 161.524 30.9963C161.359 31.7758 160.414 32.2719 159.682 32.2719C158.997 32.2719 158.359 31.8467 158.5 31.1144C158.666 30.3349 159.634 29.8389 160.367 29.8389Z" fill="#44100C"/>
<path d="M154.114 33.5711C154.398 33.4766 154.776 33.4058 155.083 33.4294C155.673 33.453 155.603 33.5947 155.484 34.0199C154.894 35.9097 154.351 37.8703 153.996 39.8072C153.453 42.6655 155.768 42.2166 156.949 40.4686C157.209 40.1143 157.61 40.2324 157.469 40.7285C157.232 41.6025 156.477 42.382 155.768 42.9017C153.713 44.3662 150.996 44.319 151.516 40.9883C150.831 42.0277 149.39 43.5158 147.973 43.6812C145.894 43.9646 145.469 41.7915 145.8 40.2088C146.154 38.5789 147.052 36.6419 148.114 35.39C148.705 34.6813 149.461 34.0672 150.311 33.7365C151.492 33.3113 152.177 33.5475 152.933 34.4451C153.311 33.9727 153.5 33.7601 154.114 33.5711ZM151.776 35.4372C151.067 35.1065 150.359 35.579 149.862 36.075C148.847 37.1144 146.957 40.7993 148.351 41.7678C149.012 42.2166 150.359 40.9647 151.162 39.8781C151.799 38.9805 153.004 36.0278 151.776 35.4372Z" fill="#44100C"/>
<path d="M144.178 43.3266C144.036 43.9644 142.005 43.7518 142.099 42.8778C142.359 40.681 142.808 38.4605 143.162 36.2637C142.383 37.5393 140.824 40.2794 139.926 41.0589C139.336 41.555 137.895 41.4605 137.588 40.5865C137.281 39.6652 137.257 37.5157 137.186 36.0984C136.974 37.5157 136.548 39.0747 136.265 40.492C135.225 45.6179 130.69 43.7281 131.871 41.3187C132.863 42.0038 134.021 41.2479 134.233 40.1377C134.753 37.3739 135.391 34.6338 136.099 31.8937C136.312 31.0669 138.273 30.6181 138.863 31.2323C139.147 31.5157 139.099 33.3582 139.123 33.7834C139.147 35.6259 139.218 37.3975 139.407 39.2164C140.966 36.9015 142.406 33.7598 144.131 31.7756C144.556 31.2087 145.525 30.9252 146.186 30.9488C146.351 30.9725 146.729 30.9961 146.682 31.2087C145.595 35.1062 144.603 39.3109 144.178 43.3266Z" fill="#44100C"/>
<defs>
<clipPath id="clip0_54869_29539">
<rect width="59.421" height="40.6127" fill="white" transform="translate(57.2556 26.1938)"/>
</clipPath>
</defs>
</svg>
